<?xml version='1.0' encoding='UTF-8'?>
<svg width="45mm" height="45mm" version="1.1" viewBox="0 0 45 45" xmlns="http://www.w3.org/2000/svg"><path d="M4,4H5V5H4zM5,4H6V5H5zM6,4H7V5H6zM7,4H8V5H7zM8,4H9V5H8zM9,4H10V5H9zM10,4H11V5H10zM13,4H14V5H13zM14,4H15V5H14zM15,4H16V5H15zM16,4H17V5H16zM17,4H18V5H17zM18,4H19V5H18zM20,4H21V5H20zM23,4H24V5H23zM24,4H25V5H24zM26,4H27V5H26zM27,4H28V5H27zM32,4H33V5H32zM34,4H35V5H34zM35,4H36V5H35zM36,4H37V5H36zM37,4H38V5H37zM38,4H39V5H38zM39,4H40V5H39zM40,4H41V5H40zM4,5H5V6H4zM10,5H11V6H10zM14,5H15V6H14zM21,5H22V6H21zM22,5H23V6H22zM25,5H26V6H25zM28,5H29V6H28zM29,5H30V6H29zM30,5H31V6H30zM32,5H33V6H32zM34,5H35V6H34zM40,5H41V6H40zM4,6H5V7H4zM6,6H7V7H6zM7,6H8V7H7zM8,6H9V7H8zM10,6H11V7H10zM13,6H14V7H13zM17,6H18V7H17zM18,6H19V7H18zM21,6H22V7H21zM22,6H23V7H22zM24,6H25V7H24zM25,6H26V7H25zM26,6H27V7H26zM27,6H28V7H27zM28,6H29V7H28zM29,6H30V7H29zM31,6H32V7H31zM32,6H33V7H32zM34,6H35V7H34zM36,6H37V7H36zM37,6H38V7H37zM38,6H39V7H38zM40,6H41V7H40zM4,7H5V8H4zM6,7H7V8H6zM7,7H8V8H7zM8,7H9V8H8zM10,7H11V8H10zM13,7H14V8H13zM15,7H16V8H15zM16,7H17V8H16zM17,7H18V8H17zM21,7H22V8H21zM23,7H24V8H23zM27,7H28V8H27zM29,7H30V8H29zM31,7H32V8H31zM34,7H35V8H34zM36,7H37V8H36zM37,7H38V8H37zM38,7H39V8H38zM40,7H41V8H40zM4,8H5V9H4zM6,8H7V9H6zM7,8H8V9H7zM8,8H9V9H8zM10,8H11V9H10zM12,8H13V9H12zM14,8H15V9H14zM15,8H16V9H15zM16,8H17V9H16zM17,8H18V9H17zM18,8H19V9H18zM23,8H24V9H23zM26,8H27V9H26zM27,8H28V9H27zM30,8H31V9H30zM31,8H32V9H31zM34,8H35V9H34zM36,8H37V9H36zM37,8H38V9H37zM38,8H39V9H38zM40,8H41V9H40zM4,9H5V10H4zM10,9H11V10H10zM13,9H14V10H13zM14,9H15V10H14zM18,9H19V10H18zM19,9H20V10H19zM20,9H21V10H20zM21,9H22V10H21zM22,9H23V10H22zM25,9H26V10H25zM26,9H27V10H26zM29,9H30V10H29zM34,9H35V10H34zM40,9H41V10H40zM4,10H5V11H4zM5,10H6V11H5zM6,10H7V11H6zM7,10H8V11H7zM8,10H9V11H8zM9,10H10V11H9zM10,10H11V11H10zM12,10H13V11H12zM14,10H15V11H14zM16,10H17V11H16zM18,10H19V11H18zM20,10H21V11H20zM22,10H23V11H22zM24,10H25V11H24zM26,10H27V11H26zM28,10H29V11H28zM30,10H31V11H30zM32,10H33V11H32zM34,10H35V11H34zM35,10H36V11H35zM36,10H37V11H36zM37,10H38V11H37zM38,10H39V11H38zM39,10H40V11H39zM40,10H41V11H40zM12,11H13V12H12zM13,11H14V12H13zM14,11H15V12H14zM15,11H16V12H15zM17,11H18V12H17zM19,11H20V12H19zM22,11H23V12H22zM24,11H25V12H24zM27,11H28V12H27zM31,11H32V12H31zM32,11H33V12H32zM6,12H7V13H6zM7,12H8V13H7zM10,12H11V13H10zM11,12H12V13H11zM12,12H13V13H12zM13,12H14V13H13zM15,12H16V13H15zM19,12H20V13H19zM20,12H21V13H20zM21,12H22V13H21zM23,12H24V13H23zM24,12H25V13H24zM29,12H30V13H29zM31,12H32V13H31zM32,12H33V13H32zM33,12H34V13H33zM34,12H35V13H34zM36,12H37V13H36zM9,13H10V14H9zM11,13H12V14H11zM14,13H15V14H14zM15,13H16V14H15zM17,13H18V14H17zM20,13H21V14H20zM22,13H23V14H22zM25,13H26V14H25zM26,13H27V14H26zM29,13H30V14H29zM30,13H31V14H30zM31,13H32V14H31zM32,13H33V14H32zM34,13H35V14H34zM38,13H39V14H38zM4,14H5V15H4zM8,14H9V15H8zM9,14H10V15H9zM10,14H11V15H10zM12,14H13V15H12zM13,14H14V15H13zM14,14H15V15H14zM16,14H17V15H16zM17,14H18V15H17zM18,14H19V15H18zM21,14H22V15H21zM22,14H23V15H22zM23,14H24V15H23zM24,14H25V15H24zM26,14H27V15H26zM27,14H28V15H27zM28,14H29V15H28zM29,14H30V15H29zM31,14H32V15H31zM33,14H34V15H33zM35,14H36V15H35zM37,14H38V15H37zM38,14H39V15H38zM6,15H7V16H6zM8,15H9V16H8zM9,15H10V16H9zM12,15H13V16H12zM16,15H17V16H16zM17,15H18V16H17zM18,15H19V16H18zM20,15H21V16H20zM22,15H23V16H22zM24,15H25V16H24zM25,15H26V16H25zM28,15H29V16H28zM29,15H30V16H29zM30,15H31V16H30zM31,15H32V16H31zM35,15H36V16H35zM37,15H38V16H37zM38,15H39V16H38zM40,15H41V16H40zM5,16H6V17H5zM10,16H11V17H10zM12,16H13V17H12zM13,16H14V17H13zM16,16H17V17H16zM18,16H19V17H18zM20,16H21V17H20zM21,16H22V17H21zM26,16H27V17H26zM29,16H30V17H29zM30,16H31V17H30zM33,16H34V17H33zM34,16H35V17H34zM36,16H37V17H36zM38,16H39V17H38zM39,16H40V17H39zM4,17H5V18H4zM5,17H6V18H5zM6,17H7V18H6zM11,17H12V18H11zM12,17H13V18H12zM15,17H16V18H15zM17,17H18V18H17zM18,17H19V18H18zM19,17H20V18H19zM21,17H22V18H21zM23,17H24V18H23zM24,17H25V18H24zM27,17H28V18H27zM29,17H30V18H29zM31,17H32V18H31zM32,17H33V18H32zM34,17H35V18H34zM36,17H37V18H36zM38,17H39V18H38zM40,17H41V18H40zM6,18H7V19H6zM8,18H9V19H8zM10,18H11V19H10zM11,18H12V19H11zM13,18H14V19H13zM15,18H16V19H15zM17,18H18V19H17zM18,18H19V19H18zM22,18H23V19H22zM23,18H24V19H23zM24,18H25V19H24zM25,18H26V19H25zM29,18H30V19H29zM33,18H34V19H33zM34,18H35V19H34zM38,18H39V19H38zM39,18H40V19H39zM4,19H5V20H4zM9,19H10V20H9zM14,19H15V20H14zM18,19H19V20H18zM20,19H21V20H20zM22,19H23V20H22zM25,19H26V20H25zM26,19H27V20H26zM28,19H29V20H28zM30,19H31V20H30zM31,19H32V20H31zM34,19H35V20H34zM35,19H36V20H35zM36,19H37V20H36zM39,19H40V20H39zM40,19H41V20H40zM6,20H7V21H6zM7,20H8V21H7zM8,20H9V21H8zM9,20H10V21H9zM10,20H11V21H10zM12,20H13V21H12zM13,20H14V21H13zM16,20H17V21H16zM19,20H20V21H19zM20,20H21V21H20zM23,20H24V21H23zM24,20H25V21H24zM26,20H27V21H26zM27,20H28V21H27zM28,20H29V21H28zM29,20H30V21H29zM32,20H33V21H32zM37,20H38V21H37zM38,20H39V21H38zM7,21H8V22H7zM9,21H10V22H9zM16,21H17V22H16zM17,21H18V22H17zM19,21H20V22H19zM21,21H22V22H21zM22,21H23V22H22zM24,21H25V22H24zM27,21H28V22H27zM28,21H29V22H28zM31,21H32V22H31zM34,21H35V22H34zM38,21H39V22H38zM40,21H41V22H40zM8,22H9V23H8zM9,22H10V23H9zM10,22H11V23H10zM19,22H20V23H19zM23,22H24V23H23zM24,22H25V23H24zM27,22H28V23H27zM28,22H29V23H28zM30,22H31V23H30zM31,22H32V23H31zM33,22H34V23H33zM35,22H36V23H35zM37,22H38V23H37zM38,22H39V23H38zM39,22H40V23H39zM40,22H41V23H40zM6,23H7V24H6zM8,23H9V24H8zM11,23H12V24H11zM12,23H13V24H12zM13,23H14V24H13zM20,23H21V24H20zM21,23H22V24H21zM27,23H28V24H27zM28,23H29V24H28zM31,23H32V24H31zM32,23H33V24H32zM34,23H35V24H34zM36,23H37V24H36zM37,23H38V24H37zM6,24H7V25H6zM8,24H9V25H8zM10,24H11V25H10zM12,24H13V25H12zM14,24H15V25H14zM19,24H20V25H19zM20,24H21V25H20zM21,24H22V25H21zM22,24H23V25H22zM24,24H25V25H24zM26,24H27V25H26zM30,24H31V25H30zM31,24H32V25H31zM32,24H33V25H32zM33,24H34V25H33zM36,24H37V25H36zM39,24H40V25H39zM4,25H5V26H4zM6,25H7V26H6zM7,25H8V26H7zM8,25H9V26H8zM11,25H12V26H11zM13,25H14V26H13zM15,25H16V26H15zM17,25H18V26H17zM20,25H21V26H20zM23,25H24V26H23zM26,25H27V26H26zM29,25H30V26H29zM30,25H31V26H30zM35,25H36V26H35zM37,25H38V26H37zM5,26H6V27H5zM10,26H11V27H10zM11,26H12V27H11zM12,26H13V27H12zM14,26H15V27H14zM15,26H16V27H15zM17,26H18V27H17zM19,26H20V27H19zM20,26H21V27H20zM25,26H26V27H25zM28,26H29V27H28zM29,26H30V27H29zM34,26H35V27H34zM36,26H37V27H36zM37,26H38V27H37zM38,26H39V27H38zM8,27H9V28H8zM9,27H10V28H9zM11,27H12V28H11zM14,27H15V28H14zM15,27H16V28H15zM18,27H19V28H18zM20,27H21V28H20zM21,27H22V28H21zM22,27H23V28H22zM23,27H24V28H23zM25,27H26V28H25zM26,27H27V28H26zM28,27H29V28H28zM31,27H32V28H31zM32,27H33V28H32zM34,27H35V28H34zM37,27H38V28H37zM38,27H39V28H38zM5,28H6V29H5zM7,28H8V29H7zM8,28H9V29H8zM9,28H10V29H9zM10,28H11V29H10zM13,28H14V29H13zM16,28H17V29H16zM20,28H21V29H20zM22,28H23V29H22zM27,28H28V29H27zM28,28H29V29H28zM30,28H31V29H30zM32,28H33V29H32zM33,28H34V29H33zM35,28H36V29H35zM36,28H37V29H36zM37,28H38V29H37zM38,28H39V29H38zM40,28H41V29H40zM6,29H7V30H6zM8,29H9V30H8zM12,29H13V30H12zM13,29H14V30H13zM14,29H15V30H14zM17,29H18V30H17zM19,29H20V30H19zM20,29H21V30H20zM21,29H22V30H21zM24,29H25V30H24zM27,29H28V30H27zM28,29H29V30H28zM30,29H31V30H30zM33,29H34V30H33zM35,29H36V30H35zM36,29H37V30H36zM39,29H40V30H39zM40,29H41V30H40zM5,30H6V31H5zM7,30H8V31H7zM10,30H11V31H10zM15,30H16V31H15zM17,30H18V31H17zM19,30H20V31H19zM22,30H23V31H22zM23,30H24V31H23zM24,30H25V31H24zM25,30H26V31H25zM26,30H27V31H26zM27,30H28V31H27zM29,30H30V31H29zM30,30H31V31H30zM35,30H36V31H35zM4,31H5V32H4zM6,31H7V32H6zM12,31H13V32H12zM13,31H14V32H13zM14,31H15V32H14zM15,31H16V32H15zM19,31H20V32H19zM21,31H22V32H21zM24,31H25V32H24zM26,31H27V32H26zM27,31H28V32H27zM31,31H32V32H31zM33,31H34V32H33zM35,31H36V32H35zM39,31H40V32H39zM40,31H41V32H40zM8,32H9V33H8zM9,32H10V33H9zM10,32H11V33H10zM11,32H12V33H11zM12,32H13V33H12zM13,32H14V33H13zM15,32H16V33H15zM16,32H17V33H16zM17,32H18V33H17zM20,32H21V33H20zM22,32H23V33H22zM24,32H25V33H24zM28,32H29V33H28zM29,32H30V33H29zM32,32H33V33H32zM33,32H34V33H33zM34,32H35V33H34zM35,32H36V33H35zM36,32H37V33H36zM37,32H38V33H37zM38,32H39V33H38zM12,33H13V34H12zM14,33H15V34H14zM16,33H17V34H16zM17,33H18V34H17zM19,33H20V34H19zM22,33H23V34H22zM26,33H27V34H26zM27,33H28V34H27zM28,33H29V34H28zM29,33H30V34H29zM32,33H33V34H32zM36,33H37V34H36zM37,33H38V34H37zM38,33H39V34H38zM40,33H41V34H40zM4,34H5V35H4zM5,34H6V35H5zM6,34H7V35H6zM7,34H8V35H7zM8,34H9V35H8zM9,34H10V35H9zM10,34H11V35H10zM12,34H13V35H12zM15,34H16V35H15zM16,34H17V35H16zM17,34H18V35H17zM19,34H20V35H19zM20,34H21V35H20zM21,34H22V35H21zM22,34H23V35H22zM23,34H24V35H23zM25,34H26V35H25zM26,34H27V35H26zM30,34H31V35H30zM32,34H33V35H32zM34,34H35V35H34zM36,34H37V35H36zM37,34H38V35H37zM39,34H40V35H39zM40,34H41V35H40zM4,35H5V36H4zM10,35H11V36H10zM13,35H14V36H13zM14,35H15V36H14zM15,35H16V36H15zM17,35H18V36H17zM18,35H19V36H18zM19,35H20V36H19zM20,35H21V36H20zM21,35H22V36H21zM22,35H23V36H22zM25,35H26V36H25zM27,35H28V36H27zM28,35H29V36H28zM30,35H31V36H30zM31,35H32V36H31zM32,35H33V36H32zM36,35H37V36H36zM37,35H38V36H37zM39,35H40V36H39zM4,36H5V37H4zM6,36H7V37H6zM7,36H8V37H7zM8,36H9V37H8zM10,36H11V37H10zM16,36H17V37H16zM18,36H19V37H18zM21,36H22V37H21zM24,36H25V37H24zM25,36H26V37H25zM26,36H27V37H26zM28,36H29V37H28zM30,36H31V37H30zM32,36H33V37H32zM33,36H34V37H33zM34,36H35V37H34zM35,36H36V37H35zM36,36H37V37H36zM37,36H38V37H37zM40,36H41V37H40zM4,37H5V38H4zM6,37H7V38H6zM7,37H8V38H7zM8,37H9V38H8zM10,37H11V38H10zM12,37H13V38H12zM15,37H16V38H15zM17,37H18V38H17zM24,37H25V38H24zM25,37H26V38H25zM26,37H27V38H26zM28,37H29V38H28zM31,37H32V38H31zM34,37H35V38H34zM36,37H37V38H36zM4,38H5V39H4zM6,38H7V39H6zM7,38H8V39H7zM8,38H9V39H8zM10,38H11V39H10zM12,38H13V39H12zM13,38H14V39H13zM14,38H15V39H14zM16,38H17V39H16zM17,38H18V39H17zM18,38H19V39H18zM19,38H20V39H19zM27,38H28V39H27zM28,38H29V39H28zM29,38H30V39H29zM30,38H31V39H30zM31,38H32V39H31zM32,38H33V39H32zM34,38H35V39H34zM35,38H36V39H35zM36,38H37V39H36zM37,38H38V39H37zM39,38H40V39H39zM4,39H5V40H4zM10,39H11V40H10zM14,39H15V40H14zM15,39H16V40H15zM16,39H17V40H16zM20,39H21V40H20zM21,39H22V40H21zM23,39H24V40H23zM26,39H27V40H26zM29,39H30V40H29zM34,39H35V40H34zM36,39H37V40H36zM37,39H38V40H37zM38,39H39V40H38zM4,40H5V41H4zM5,40H6V41H5zM6,40H7V41H6zM7,40H8V41H7zM8,40H9V41H8zM9,40H10V41H9zM10,40H11V41H10zM13,40H14V41H13zM18,40H19V41H18zM19,40H20V41H19zM21,40H22V41H21zM22,40H23V41H22zM24,40H25V41H24zM26,40H27V41H26zM28,40H29V41H28zM29,40H30V41H29zM30,40H31V41H30zM33,40H34V41H33zM34,40H35V41H34zM35,40H36V41H35zM36,40H37V41H36zM37,40H38V41H37zM38,40H39V41H38zM39,40H40V41H39zM40,40H41V41H40z" id="qr-path" fill="#000000" fill-opacity="1" fill-rule="nonzero" stroke="none"/></svg>