<?xml version='1.0' encoding='UTF-8'?>
<svg width="41mm" height="41mm" version="1.1" viewBox="0 0 41 41" xmlns="http://www.w3.org/2000/svg"><path d="M4,4H5V5H4zM5,4H6V5H5zM6,4H7V5H6zM7,4H8V5H7zM8,4H9V5H8zM9,4H10V5H9zM10,4H11V5H10zM12,4H13V5H12zM15,4H16V5H15zM17,4H18V5H17zM21,4H22V5H21zM22,4H23V5H22zM23,4H24V5H23zM26,4H27V5H26zM28,4H29V5H28zM30,4H31V5H30zM31,4H32V5H31zM32,4H33V5H32zM33,4H34V5H33zM34,4H35V5H34zM35,4H36V5H35zM36,4H37V5H36zM4,5H5V6H4zM10,5H11V6H10zM17,5H18V6H17zM19,5H20V6H19zM22,5H23V6H22zM23,5H24V6H23zM26,5H27V6H26zM28,5H29V6H28zM30,5H31V6H30zM36,5H37V6H36zM4,6H5V7H4zM6,6H7V7H6zM7,6H8V7H7zM8,6H9V7H8zM10,6H11V7H10zM12,6H13V7H12zM15,6H16V7H15zM18,6H19V7H18zM19,6H20V7H19zM20,6H21V7H20zM21,6H22V7H21zM22,6H23V7H22zM25,6H26V7H25zM27,6H28V7H27zM28,6H29V7H28zM30,6H31V7H30zM32,6H33V7H32zM33,6H34V7H33zM34,6H35V7H34zM36,6H37V7H36zM4,7H5V8H4zM6,7H7V8H6zM7,7H8V8H7zM8,7H9V8H8zM10,7H11V8H10zM16,7H17V8H16zM21,7H22V8H21zM23,7H24V8H23zM25,7H26V8H25zM27,7H28V8H27zM28,7H29V8H28zM30,7H31V8H30zM32,7H33V8H32zM33,7H34V8H33zM34,7H35V8H34zM36,7H37V8H36zM4,8H5V9H4zM6,8H7V9H6zM7,8H8V9H7zM8,8H9V9H8zM10,8H11V9H10zM12,8H13V9H12zM15,8H16V9H15zM16,8H17V9H16zM17,8H18V9H17zM18,8H19V9H18zM19,8H20V9H19zM20,8H21V9H20zM21,8H22V9H21zM30,8H31V9H30zM32,8H33V9H32zM33,8H34V9H33zM34,8H35V9H34zM36,8H37V9H36zM4,9H5V10H4zM10,9H11V10H10zM13,9H14V10H13zM14,9H15V10H14zM18,9H19V10H18zM19,9H20V10H19zM21,9H22V10H21zM22,9H23V10H22zM23,9H24V10H23zM25,9H26V10H25zM26,9H27V10H26zM27,9H28V10H27zM28,9H29V10H28zM30,9H31V10H30zM36,9H37V10H36zM4,10H5V11H4zM5,10H6V11H5zM6,10H7V11H6zM7,10H8V11H7zM8,10H9V11H8zM9,10H10V11H9zM10,10H11V11H10zM12,10H13V11H12zM14,10H15V11H14zM16,10H17V11H16zM18,10H19V11H18zM20,10H21V11H20zM22,10H23V11H22zM24,10H25V11H24zM26,10H27V11H26zM28,10H29V11H28zM30,10H31V11H30zM31,10H32V11H31zM32,10H33V11H32zM33,10H34V11H33zM34,10H35V11H34zM35,10H36V11H35zM36,10H37V11H36zM12,11H13V12H12zM13,11H14V12H13zM16,11H17V12H16zM17,11H18V12H17zM20,11H21V12H20zM22,11H23V12H22zM23,11H24V12H23zM24,11H25V12H24zM26,11H27V12H26zM27,11H28V12H27zM9,12H10V13H9zM10,12H11V13H10zM13,12H14V13H13zM15,12H16V13H15zM17,12H18V13H17zM21,12H22V13H21zM22,12H23V13H22zM24,12H25V13H24zM26,12H27V13H26zM27,12H28V13H27zM28,12H29V13H28zM30,12H31V13H30zM32,12H33V13H32zM34,12H35V13H34zM36,12H37V13H36zM4,13H5V14H4zM5,13H6V14H5zM8,13H9V14H8zM9,13H10V14H9zM12,13H13V14H12zM13,13H14V14H13zM14,13H15V14H14zM20,13H21V14H20zM21,13H22V14H21zM22,13H23V14H22zM24,13H25V14H24zM26,13H27V14H26zM27,13H28V14H27zM29,13H30V14H29zM31,13H32V14H31zM32,13H33V14H32zM34,13H35V14H34zM4,14H5V15H4zM5,14H6V15H5zM6,14H7V15H6zM8,14H9V15H8zM9,14H10V15H9zM10,14H11V15H10zM12,14H13V15H12zM14,14H15V15H14zM16,14H17V15H16zM18,14H19V15H18zM20,14H21V15H20zM23,14H24V15H23zM24,14H25V15H24zM25,14H26V15H25zM31,14H32V15H31zM33,14H34V15H33zM35,14H36V15H35zM4,15H5V16H4zM5,15H6V16H5zM6,15H7V16H6zM14,15H15V16H14zM16,15H17V16H16zM19,15H20V16H19zM20,15H21V16H20zM22,15H23V16H22zM26,15H27V16H26zM27,15H28V16H27zM28,15H29V16H28zM30,15H31V16H30zM31,15H32V16H31zM33,15H34V16H33zM34,15H35V16H34zM4,16H5V17H4zM7,16H8V17H7zM8,16H9V17H8zM10,16H11V17H10zM11,16H12V17H11zM13,16H14V17H13zM16,16H17V17H16zM17,16H18V17H17zM18,16H19V17H18zM19,16H20V17H19zM21,16H22V17H21zM22,16H23V17H22zM23,16H24V17H23zM25,16H26V17H25zM26,16H27V17H26zM27,16H28V17H27zM28,16H29V17H28zM30,16H31V17H30zM31,16H32V17H31zM32,16H33V17H32zM33,16H34V17H33zM36,16H37V17H36zM4,17H5V18H4zM7,17H8V18H7zM8,17H9V18H8zM9,17H10V18H9zM11,17H12V18H11zM17,17H18V18H17zM20,17H21V18H20zM21,17H22V18H21zM22,17H23V18H22zM24,17H25V18H24zM25,17H26V18H25zM26,17H27V18H26zM27,17H28V18H27zM30,17H31V18H30zM33,17H34V18H33zM36,17H37V18H36zM5,18H6V19H5zM7,18H8V19H7zM9,18H10V19H9zM10,18H11V19H10zM14,18H15V19H14zM15,18H16V19H15zM17,18H18V19H17zM19,18H20V19H19zM22,18H23V19H22zM23,18H24V19H23zM24,18H25V19H24zM26,18H27V19H26zM29,18H30V19H29zM31,18H32V19H31zM32,18H33V19H32zM34,18H35V19H34zM35,18H36V19H35zM4,19H5V20H4zM6,19H7V20H6zM7,19H8V20H7zM8,19H9V20H8zM11,19H12V20H11zM15,19H16V20H15zM17,19H18V20H17zM18,19H19V20H18zM19,19H20V20H19zM20,19H21V20H20zM21,19H22V20H21zM23,19H24V20H23zM28,19H29V20H28zM29,19H30V20H29zM30,19H31V20H30zM32,19H33V20H32zM33,19H34V20H33zM34,19H35V20H34zM35,19H36V20H35zM36,19H37V20H36zM5,20H6V21H5zM6,20H7V21H6zM10,20H11V21H10zM11,20H12V21H11zM12,20H13V21H12zM13,20H14V21H13zM14,20H15V21H14zM15,20H16V21H15zM17,20H18V21H17zM18,20H19V21H18zM20,20H21V21H20zM21,20H22V21H21zM22,20H23V21H22zM23,20H24V21H23zM24,20H25V21H24zM31,20H32V21H31zM32,20H33V21H32zM35,20H36V21H35zM36,20H37V21H36zM8,21H9V22H8zM11,21H12V22H11zM12,21H13V22H12zM14,21H15V22H14zM16,21H17V22H16zM18,21H19V22H18zM20,21H21V22H20zM21,21H22V22H21zM22,21H23V22H22zM24,21H25V22H24zM25,21H26V22H25zM27,21H28V22H27zM28,21H29V22H28zM30,21H31V22H30zM31,21H32V22H31zM36,21H37V22H36zM4,22H5V23H4zM6,22H7V23H6zM7,22H8V23H7zM8,22H9V23H8zM10,22H11V23H10zM13,22H14V23H13zM14,22H15V23H14zM15,22H16V23H15zM17,22H18V23H17zM18,22H19V23H18zM19,22H20V23H19zM22,22H23V23H22zM24,22H25V23H24zM25,22H26V23H25zM26,22H27V23H26zM27,22H28V23H27zM31,22H32V23H31zM32,22H33V23H32zM33,22H34V23H33zM34,22H35V23H34zM36,22H37V23H36zM7,23H8V24H7zM9,23H10V24H9zM11,23H12V24H11zM12,23H13V24H12zM14,23H15V24H14zM15,23H16V24H15zM16,23H17V24H16zM17,23H18V24H17zM19,23H20V24H19zM21,23H22V24H21zM22,23H23V24H22zM24,23H25V24H24zM26,23H27V24H26zM27,23H28V24H27zM28,23H29V24H28zM30,23H31V24H30zM31,23H32V24H31zM33,23H34V24H33zM34,23H35V24H34zM35,23H36V24H35zM36,23H37V24H36zM7,24H8V25H7zM8,24H9V25H8zM9,24H10V25H9zM10,24H11V25H10zM11,24H12V25H11zM12,24H13V25H12zM16,24H17V25H16zM18,24H19V25H18zM19,24H20V25H19zM20,24H21V25H20zM21,24H22V25H21zM24,24H25V25H24zM26,24H27V25H26zM29,24H30V25H29zM30,24H31V25H30zM32,24H33V25H32zM33,24H34V25H33zM35,24H36V25H35zM36,24H37V25H36zM4,25H5V26H4zM5,25H6V26H5zM8,25H9V26H8zM11,25H12V26H11zM13,25H14V26H13zM14,25H15V26H14zM17,25H18V26H17zM19,25H20V26H19zM23,25H24V26H23zM24,25H25V26H24zM25,25H26V26H25zM26,25H27V26H26zM28,25H29V26H28zM30,25H31V26H30zM31,25H32V26H31zM32,25H33V26H32zM35,25H36V26H35zM4,26H5V27H4zM6,26H7V27H6zM8,26H9V27H8zM10,26H11V27H10zM11,26H12V27H11zM12,26H13V27H12zM14,26H15V27H14zM16,26H17V27H16zM17,26H18V27H17zM18,26H19V27H18zM20,26H21V27H20zM22,26H23V27H22zM23,26H24V27H23zM24,26H25V27H24zM25,26H26V27H25zM26,26H27V27H26zM34,26H35V27H34zM35,26H36V27H35zM4,27H5V28H4zM6,27H7V28H6zM7,27H8V28H7zM8,27H9V28H8zM9,27H10V28H9zM12,27H13V28H12zM13,27H14V28H13zM18,27H19V28H18zM20,27H21V28H20zM21,27H22V28H21zM23,27H24V28H23zM26,27H27V28H26zM28,27H29V28H28zM31,27H32V28H31zM33,27H34V28H33zM34,27H35V28H34zM36,27H37V28H36zM4,28H5V29H4zM5,28H6V29H5zM6,28H7V29H6zM7,28H8V29H7zM8,28H9V29H8zM10,28H11V29H10zM13,28H14V29H13zM15,28H16V29H15zM16,28H17V29H16zM18,28H19V29H18zM20,28H21V29H20zM22,28H23V29H22zM24,28H25V29H24zM26,28H27V29H26zM27,28H28V29H27zM28,28H29V29H28zM29,28H30V29H29zM30,28H31V29H30zM31,28H32V29H31zM32,28H33V29H32zM33,28H34V29H33zM12,29H13V30H12zM14,29H15V30H14zM17,29H18V30H17zM20,29H21V30H20zM23,29H24V30H23zM24,29H25V30H24zM25,29H26V30H25zM28,29H29V30H28zM32,29H33V30H32zM35,29H36V30H35zM36,29H37V30H36zM4,30H5V31H4zM5,30H6V31H5zM6,30H7V31H6zM7,30H8V31H7zM8,30H9V31H8zM9,30H10V31H9zM10,30H11V31H10zM13,30H14V31H13zM14,30H15V31H14zM18,30H19V31H18zM19,30H20V31H19zM20,30H21V31H20zM21,30H22V31H21zM22,30H23V31H22zM23,30H24V31H23zM24,30H25V31H24zM26,30H27V31H26zM27,30H28V31H27zM28,30H29V31H28zM30,30H31V31H30zM32,30H33V31H32zM33,30H34V31H33zM34,30H35V31H34zM35,30H36V31H35zM4,31H5V32H4zM10,31H11V32H10zM12,31H13V32H12zM13,31H14V32H13zM15,31H16V32H15zM18,31H19V32H18zM21,31H22V32H21zM22,31H23V32H22zM23,31H24V32H23zM25,31H26V32H25zM26,31H27V32H26zM27,31H28V32H27zM28,31H29V32H28zM32,31H33V32H32zM33,31H34V32H33zM34,31H35V32H34zM35,31H36V32H35zM4,32H5V33H4zM6,32H7V33H6zM7,32H8V33H7zM8,32H9V33H8zM10,32H11V33H10zM13,32H14V33H13zM15,32H16V33H15zM16,32H17V33H16zM18,32H19V33H18zM19,32H20V33H19zM20,32H21V33H20zM21,32H22V33H21zM24,32H25V33H24zM25,32H26V33H25zM26,32H27V33H26zM28,32H29V33H28zM29,32H30V33H29zM30,32H31V33H30zM31,32H32V33H31zM32,32H33V33H32zM35,32H36V33H35zM36,32H37V33H36zM4,33H5V34H4zM6,33H7V34H6zM7,33H8V34H7zM8,33H9V34H8zM10,33H11V34H10zM13,33H14V34H13zM14,33H15V34H14zM16,33H17V34H16zM17,33H18V34H17zM18,33H19V34H18zM20,33H21V34H20zM21,33H22V34H21zM22,33H23V34H22zM24,33H25V34H24zM25,33H26V34H25zM29,33H30V34H29zM31,33H32V34H31zM32,33H33V34H32zM34,33H35V34H34zM35,33H36V34H35zM4,34H5V35H4zM6,34H7V35H6zM7,34H8V35H7zM8,34H9V35H8zM10,34H11V35H10zM13,34H14V35H13zM16,34H17V35H16zM18,34H19V35H18zM19,34H20V35H19zM21,34H22V35H21zM22,34H23V35H22zM26,34H27V35H26zM32,34H33V35H32zM34,34H35V35H34zM35,34H36V35H35zM36,34H37V35H36zM4,35H5V36H4zM10,35H11V36H10zM16,35H17V36H16zM19,35H20V36H19zM24,35H25V36H24zM25,35H26V36H25zM29,35H30V36H29zM33,35H34V36H33zM34,35H35V36H34zM4,36H5V37H4zM5,36H6V37H5zM6,36H7V37H6zM7,36H8V37H7zM8,36H9V37H8zM9,36H10V37H9zM10,36H11V37H10zM13,36H14V37H13zM16,36H17V37H16zM20,36H21V37H20zM22,36H23V37H22zM23,36H24V37H23zM24,36H25V37H24zM25,36H26V37H25zM26,36H27V37H26zM27,36H28V37H27zM28,36H29V37H28zM29,36H30V37H29zM35,36H36V37H35z" id="qr-path" fill="#000000" fill-opacity="1" fill-rule="nonzero" stroke="none"/></svg>